<?xml version="1.0" encoding="utf-8"?>
<!-- Generator: Adobe Illustrator 17.1.0, SVG Export Plug-In . SVG Version: 6.00 Build 0)  -->
<!DOCTYPE svg PUBLIC "-//W3C//DTD SVG 1.1//EN" "http://www.w3.org/Graphics/SVG/1.1/DTD/svg11.dtd">
<svg version="1.1" xmlns="http://www.w3.org/2000/svg" xmlns:xlink="http://www.w3.org/1999/xlink" x="0px" y="0px"
	 viewBox="0 0 612 612" enable-background="new 0 0 612 612" xml:space="preserve">
<g id="Background">
	<circle fill="#FFFFFF" cx="306" cy="306" r="306.6"/>
</g>
<g id="Border">
	<path d="M306,26.4c37.8,0,74.4,7.4,108.8,22c33.3,14.1,63.2,34.2,88.9,59.9c25.7,25.7,45.9,55.6,59.9,88.9
		c14.6,34.5,22,71.1,22,108.8s-7.4,74.4-22,108.8c-14.1,33.3-34.2,63.2-59.9,88.9c-25.7,25.7-55.6,45.9-88.9,59.9
		c-34.5,14.6-71.1,22-108.8,22c-37.8,0-74.4-7.4-108.8-22c-33.3-14.1-63.2-34.2-88.9-59.9c-25.7-25.7-45.9-55.6-59.9-88.9
		c-14.6-34.5-22-71.1-22-108.8s7.4-74.4,22-108.8c14.1-33.3,34.2-63.2,59.9-88.9c25.7-25.7,55.6-45.9,88.9-59.9
		C231.6,33.8,268.2,26.4,306,26.4 M306-0.6C136.7-0.6-0.6,136.7-0.6,306S136.7,612.6,306,612.6S612.6,475.3,612.6,306
		S475.3-0.6,306-0.6L306-0.6z"/>
</g>
<g id="Ink_River">
	<g>
		<path d="M500,242c-6.3,4.6,24.4,47.6,14,64c-10.8,17-134.2-28-154.9,0c-34,46,64.9,153-17.1,169c-55.9,10.9-165-64-251.3-49.7
			C178,465,310,552.8,374,519.8c109.3-56.4,0.2-120,21-187.7c8-26.1,99,32,133,8.9C562.1,317.7,508.2,236,500,242z"/>
	</g>
</g>
<g id="Quill_Lg">
	<path fill="#FFFFFF" d="M554.5,28.3C503.9,31.2,408.7,48,340.7,98.9c-0.9,0.7-1.8,1.4-2.7,2.1l-25.2,58.2l-8.2-43.7
		c-70.7,54.6-134.8,132.3-136.7,208.1c0,0,114.5-38.7,193.6-82.3c-23.5-8-53.2-16.4-53.2-16.4s50.1-20,84.4-18.6
		c7.2-4.9,13.7-9.6,19.3-14.3c18.4-15.3,51.4-41.8,81.8-74.8l-35.1-9.7c0,0,33.5-17.9,61-18c15.5-16.3,30.3-31.1,42.8-41.8
		C570.4,40.9,565.1,27.8,554.5,28.3z"/>
	<path d="M167.8,328.3c-1,0-2-0.3-2.8-0.9c-1.2-0.9-2-2.4-1.9-3.9c1-38.9,18.9-120.3,136.9-211.5c1.3-1,5.2-3.5,5.8-2.9
		c0.2,0.3,1.3,4.1,1.6,5.6l6.8,29l19.3-44.6c0.3-0.7,0.8-1.4,1.5-1.9l2.7-2.1C419.6,34,532.5,24.9,554.2,23.6
		c7.1-0.4,23.9-0.1,26.3,6.5c2.3,6.3-10.1,16.9-15.2,21.3c-11,9.4-24.5,22.6-42.5,41.5c-0.9,0.9-2.1,1.5-3.4,1.5
		c-16.5,0-35.7,7-47.5,12.1l20.8,8.6c1.6,0.4,5,2.2,6.1,3.1c0.3,0.3-0.3,1.3-1.4,2.5c-27.8,30.1-57.7,54.3-77.2,70.5l-5.5,4.6
		c-5.5,4.6-12.1,9.5-19.6,14.6c-0.8,0.6-1.8,0.9-2.8,0.8c-22.3-0.9-51.9,7.7-68.9,13.4c10.9,3.2,26.2,7.9,39.5,12.4
		c1.8,0.6,7.7,2.6,7.4,3.5c-0.5,1.8-5.1,4-6.7,5c-68.5,47.6-193.2,82.2-194.3,82.6C168.8,328.2,168.3,328.3,167.8,328.3z
		 M299.9,124.1c-77.4,61.4-122.3,132.6-127,192.8c24.2-8.5,110.6-39.6,176.7-74.5c-20.7-6.7-41.3-13.5-41.6-13.6
		c-1.9-0.5-7.2-2.6-7.2-3.6c0-0.7,4.7-3,6.6-3.8c2-0.8,49.1-20.6,83.8-19.8c6.8-4.6,12.7-9.1,17.6-13.2l5.5-4.6
		c18.1-15,44.8-37.1,70.6-64.2l-27.1-8.8c-1.9-0.5-5-1.7-5.2-2.8c-0.1-0.8,3.3-2.8,5-3.7c1.4-0.7,32.1-18.6,60-19.4
		c17.5-18.4,30.9-31.3,41.8-40.7c3.1-2.7,5.8-7.1,5.4-8.1c-0.7-2-6.2-3.2-9.5-3.2l-0.4,0c-21.3,1.2-125.6,15.4-211.3,69.7l-1.7,1.3
		l-25.6,56.6c-0.8,1.9-3.5,6.2-3.9,6.2c-0.3,0-2.2-4.9-2.6-7L299.9,124.1z"/>
	<path d="M90.8,424.5c37.3-31,47.1-31.1,47.1-31.1C218,234.8,515.3,49.9,515.3,49.9S212.7,202.8,90.8,424.5z"/>
</g>
</svg>
